<svg xmlns="http://www.w3.org/2000/svg" width="256" height="256" viewBox="0 0 100 100"><rect width="100" height="100" rx="20" fill="#7d6ee7"></rect><path fill="#fff" d="M46.71 45.55L46.71 45.55Q56.14 45.55 64.15 45.73L64.15 45.73Q68.33 28.82 72.34 22.23L72.34 22.23Q75.01 18.41 77.68 16.71L77.68 16.71Q78.75 16.00 79.86 16.00Q80.97 16.00 80.97 19.47Q80.97 22.94 80.39 26.77Q79.81 30.60 78.92 35.58L78.92 35.58Q75.99 51.96 74.52 61.75Q73.05 71.54 73.05 80.62L73.05 80.62Q73.05 83.11 69.49 83.11L69.49 83.11Q63.88 83.11 61.84 80.93Q59.79 78.75 59.79 73.01Q59.79 67.27 62.10 54.89L62.10 54.89Q52.31 54.45 49.73 54.45L49.73 54.45L46.08 54.45Q45.11 54.45 44.13 54.54L44.13 54.54Q40.12 69.85 40.12 78.75L40.12 78.75Q40.12 84.00 29.89 84.00L29.89 84.00Q27.66 84.00 27.26 81.73Q26.86 79.46 26.86 74.34Q26.86 69.22 30.06 55.96L30.06 55.96Q24.64 56.76 22.14 56.76L22.14 56.76Q20.99 56.76 20.99 55.87L20.99 55.87Q20.99 53.92 23.88 51.42Q26.77 48.93 32.38 47.42L32.38 47.42Q35.67 36.03 38.96 28.73L38.96 28.73Q29.35 28.91 24.81 32.47L24.81 32.47Q23.39 33.53 22.50 34.38Q21.61 35.23 20.94 35.23Q20.27 35.23 19.65 34.16Q19.03 33.09 19.03 31.31L19.03 31.31Q19.03 24.81 29.98 21.43L29.98 21.43Q38.70 18.76 50.27 18.67L50.27 18.67L50.44 18.67Q51.07 18.67 52.18 19.38Q53.29 20.10 53.29 21.70Q53.29 23.30 52.71 25.30Q52.14 27.30 51.16 28.28L51.16 28.28Q50.62 32.47 46.71 45.55Z"></path></svg>